<?xml version="1.0" encoding="utf-8"?>
<!-- Generator: Adobe Illustrator 16.0.0, SVG Export Plug-In . SVG Version: 6.00 Build 0)  -->
<!DOCTYPE svg PUBLIC "-//W3C//DTD SVG 1.1//EN" "http://www.w3.org/Graphics/SVG/1.1/DTD/svg11.dtd">
<svg version="1.1" xmlns="http://www.w3.org/2000/svg" xmlns:xlink="http://www.w3.org/1999/xlink" x="0px" y="0px" width="600px"
	 height="300px" viewBox="0 0 600 300" enable-background="new 0 0 600 300" xml:space="preserve">
<g id="Layer_1">
	<rect x="-161" y="-21" display="none" fill="#27629C" width="771" height="389"/>
	
		<rect x="-106.084" y="-47.598" transform="matrix(0.9915 0.1299 -0.1299 0.9915 14.7449 -35.4074)" display="none" fill="#1D528E" width="769.668" height="285.812"/>
	
		<rect x="-264.321" y="99.569" transform="matrix(0.9682 0.2502 -0.2502 0.9682 65.4442 -30.2643)" display="none" fill="#1E3E74" width="832.143" height="285.379"/>
	
		<rect x="66.679" y="88.811" transform="matrix(-0.9891 0.147 -0.147 -0.9891 994.2874 389.5152)" display="none" fill="#1E3E74" width="832.142" height="285.378"/>
	
		<rect x="-115.399" y="-90.192" transform="matrix(0.9599 -0.2804 0.2804 0.9599 -9.5374 79.6352)" display="none" fill="#27629C" width="777.929" height="326.687"/>
</g>
<g id="Layer_2">
	<rect x="-8" y="-8" fill="#EE2953" width="616" height="315"/>
	
		<rect x="-141.192" y="37.014" transform="matrix(0.9773 0.2116 -0.2116 0.9773 42.3746 -26.8899)" fill="#DF204D" width="576" height="295"/>
	
		<rect x="332.1" y="30.212" transform="matrix(0.954 -0.2998 0.2998 0.954 -25.8801 182.7589)" fill="#DF204D" width="500.999" height="291.001"/>
</g>
</svg>
