<?xml version="1.0" encoding="utf-8"?>
<!-- Generator: Adobe Illustrator 16.0.0, SVG Export Plug-In . SVG Version: 6.00 Build 0)  -->
<!DOCTYPE svg PUBLIC "-//W3C//DTD SVG 1.1//EN" "http://www.w3.org/Graphics/SVG/1.1/DTD/svg11.dtd">
<svg version="1.1" xmlns="http://www.w3.org/2000/svg" xmlns:xlink="http://www.w3.org/1999/xlink" x="0px" y="0px" width="620px"
	 height="60px" viewBox="0 0 620 60" enable-background="new 0 0 620 60" xml:space="preserve">
<g id="Layer_1">
</g>
<g id="Layer_2">
</g>
<g id="Layer_3">
	<g>
		<g>
			<path fill="#FFFFFF" d="M76.795,0.098c-0.601-0.224-1.278-0.054-1.7,0.426c-0.232,0.267-5.702,6.6-6.084,15.897
				c-0.245,5.892-0.24,9.621,1.879,11.717c0.932,0.917,2.166,1.423,3.824,1.547v23.226c0,0.85,0.689,1.54,1.539,1.54
				c0.851,0,1.541-0.69,1.541-1.54V28.173c0-0.009,0-0.018,0-0.024V1.542C77.793,0.899,77.396,0.325,76.795,0.098z M74.713,26.593
				c-0.76-0.089-1.307-0.303-1.657-0.648c-1.208-1.193-1.157-4.803-0.967-9.397c0.164-3.932,1.388-7.304,2.624-9.752V26.593z"/>
			<path fill="#FFFFFF" d="M42.014,2.721c-13.514,0-24.507,10.992-24.507,24.506c0,13.512,10.994,24.502,24.507,24.502
				c13.508,0,24.503-10.99,24.503-24.502C66.518,13.713,55.522,2.721,42.014,2.721z M42.014,48.648
				c-11.814,0-21.426-9.611-21.426-21.421c0-11.814,9.611-21.425,21.426-21.425c11.811,0,21.421,9.61,21.421,21.425
				C63.436,39.037,53.825,48.648,42.014,48.648z"/>
			<path fill="#FFFFFF" d="M42.014,9.876c-9.568,0-17.353,7.782-17.353,17.348c0,9.565,7.785,17.35,17.353,17.35
				c9.565,0,17.347-7.784,17.347-17.35C59.361,17.658,51.58,9.876,42.014,9.876z M42.014,41.493c-7.87,0-14.271-6.401-14.271-14.269
				c0-7.866,6.401-14.267,14.271-14.267c7.865,0,14.265,6.401,14.265,14.267C56.279,35.092,49.879,41.493,42.014,41.493z"/>
			<path fill="#FFFFFF" d="M15.635,0.383c-0.851,0-1.542,0.69-1.542,1.541v7.29h-1.5v-7.29c0-0.851-0.69-1.541-1.541-1.541
				c-0.852,0-1.541,0.69-1.541,1.541v7.29H8.009v-7.29c0-0.851-0.69-1.541-1.541-1.541c-0.851,0-1.541,0.69-1.541,1.541v8.83
				c0,5.375,1.886,9.631,4.583,10.812v30.963c0,0.851,0.689,1.539,1.541,1.539c0.851,0,1.541-0.688,1.541-1.539V21.565
				c2.696-1.181,4.583-5.436,4.583-10.812v-8.83C17.174,1.073,16.485,0.383,15.635,0.383z M11.051,18.812
				c-1.076,0-2.645-2.545-2.978-6.517h5.955C13.697,16.266,12.129,18.812,11.051,18.812z"/>
		</g>
	</g>
	<g transform="translate(0 96)">
		<path fill="#FFFFFF" d="M562.046-79.284v0.003c0.353-0.747,0.561-1.528,0.561-2.327v-3.356c0-5.558-9.015-10.067-20.135-10.067
			c-11.116,0-20.134,4.51-20.134,10.067c0-0.274,0.036-0.544,0.084-0.812c-4.161,1.843-6.796,4.529-6.796,7.524v3.355
			c0,3.111,2.832,5.896,7.271,7.741l0,0c-0.353,0.746-0.56,1.526-0.56,2.326v3.354c0,1.179,0.426,2.305,1.173,3.357
			c-0.747,1.051-1.173,2.175-1.173,3.354v3.356c0,5.556,9.018,10.067,20.134,10.067c11.12,0,20.135-4.512,20.135-10.067v-3.356
			c0-1.198-0.443-2.34-1.208-3.409c-0.007,0.01-0.019,0.018-0.023,0.023c0.563-0.798,1.006-1.632,1.148-2.513
			c4.16-1.845,6.794-4.526,6.794-7.521v-3.355C569.317-74.651,566.488-77.438,562.046-79.284L562.046-79.284z M542.472-93.354
			c10.871,0,18.456,4.422,18.456,8.39c0,3.965-7.585,8.389-18.456,8.389c-10.874,0-18.458-4.424-18.458-8.389
			C524.014-88.932,531.596-93.354,542.472-93.354z M517.305-78.252c0-1.96,1.854-4.021,5.033-5.615v2.259
			c0,5.558,9.018,10.067,20.134,10.067c1.66,0,3.266-0.11,4.811-0.301c-3.077,1.182-6.987,1.978-11.521,1.978
			C524.884-69.864,517.305-74.289,517.305-78.252z M560.928-54.763c0,3.964-7.585,8.388-18.456,8.388
			c-10.874,0-18.458-4.424-18.458-8.388c0-0.658,0.282-1.328,0.679-1.989c-0.002-0.003-0.011-0.011-0.015-0.021
			c3.383,3.191,10.08,5.367,17.794,5.367c7.724,0,14.392-2.191,17.76-5.388c-0.003,0.005-0.003,0.005-0.004,0.008
			C560.638-56.118,560.928-55.437,560.928-54.763L560.928-54.763z M554.001-58.423c-3.082,1.188-6.991,1.98-11.529,1.98
			c-10.874,0-18.458-4.426-18.458-8.389c0-0.572,0.197-1.148,0.496-1.717c1.646,0.555,3.464,0.991,5.412,1.285
			c2.502,4.134,10.175,7.146,19.262,7.146c1.668,0,3.278-0.113,4.831-0.306c-0.004,0-0.009,0.003-0.014,0.003V-58.423z
			 M549.184-63.151c-4.306,0-8.06-0.709-11.072-1.792c9.465-0.559,16.935-4.355,17.702-9.14c2.281-1.014,4.111-2.274,5.287-3.709
			c-0.006,0-0.006,0-0.006,0c4.064,1.65,6.538,4.011,6.538,6.253c0,3.966-7.578,8.389-18.456,8.389L549.184-63.151z M546.061-82.52
			c0-0.354-0.28-0.626-0.846-0.807c-0.566-0.182-1.818-0.419-3.764-0.701c-1.746-0.246-3.114-0.491-4.094-0.734
			c-0.985-0.244-1.784-0.586-2.396-1.018c-0.613-0.439-0.92-0.949-0.92-1.527c0-0.76,0.547-1.447,1.64-2.058
			c1.093-0.607,2.82-0.978,5.173-1.116v-1.199h3.181v1.199c3.552,0.177,5.85,0.998,6.896,2.472l-4.377,0.736
			c-0.854-1.01-2.171-1.514-3.958-1.514c-0.9,0-1.62,0.111-2.16,0.34c-0.546,0.223-0.818,0.5-0.818,0.82
			c0,0.326,0.263,0.575,0.792,0.752c0.524,0.174,1.644,0.387,3.362,0.65c1.887,0.281,3.372,0.546,4.44,0.8
			c1.081,0.248,1.93,0.596,2.572,1.038c0.639,0.443,0.956,0.96,0.956,1.552c0,0.91-0.662,1.662-1.983,2.269
			c-1.319,0.605-3.227,0.963-5.722,1.071v1.556h-3.178v-1.547c-4.158-0.175-6.729-1.166-7.724-2.971l4.914-0.526
			c0.454,1.133,1.965,1.701,4.523,1.701c1.195,0,2.075-0.119,2.642-0.365c0.563-0.244,0.844-0.533,0.844-0.876L546.061-82.52z"/>
	</g>
	<g>
		<path fill="#FFFFFF" d="M450.401,18.767c-3.873-0.683-7.543-2.501-10.47-5.392c-2.923-2.898-4.754-6.533-5.445-10.376
			c3.929-2.438,9.622-1.575,13.562,2.333C451.989,9.236,452.864,14.874,450.401,18.767z M447.695,21.453
			c-3.725-1.032-7.217-2.947-10.085-5.783c-2.859-2.839-4.797-6.298-5.833-9.986c-2.456,3.89-1.585,9.53,2.356,13.434
			C438.074,23.021,443.766,23.886,447.695,21.453z M432.1,38.746c-4.9,0-8.404,3.035-11.496,5.712
			c-3.412,2.957-6.374,5.519-10.728,4.191c-0.866-0.631-0.891-1.143-0.899-1.315c-0.062-1.166,1.369-2.735,2.07-3.315
			c0.086-0.07,0.138-0.164,0.202-0.249c1.15,0.393,2.472,0.167,3.394-0.744l22.309-18.19c-1.841-0.777-3.601-1.901-5.14-3.42
			c-1.534-1.52-2.662-3.264-3.445-5.088L410.004,38.43c-0.813,0.81-1.052,1.931-0.83,2.969c-0.07,0.042-0.147,0.06-0.208,0.109
			c-0.351,0.289-3.419,2.871-3.266,5.979c0.053,1.091,0.534,2.667,2.526,3.986l0.393,0.191c1.275,0.423,2.467,0.606,3.585,0.606
			c4.362,0,7.614-2.82,10.559-5.367c2.913-2.524,5.669-4.905,9.337-4.905c8.451,0,14.996,8.976,15.063,9.061
			c0.522,0.741,1.553,0.905,2.285,0.388c0.741-0.518,0.913-1.531,0.39-2.262C449.536,48.758,442.259,38.746,432.1,38.746z"/>
	</g>
	<path id="XMLID_1060_" fill="#FFFFFF" d="M135.82,48.722c-0.649,0.466-1.406,0.709-2.196,0.709h-0.528
		c-0.697-1.224-2.018-2.021-3.463-2.021c-1.446,0-2.766,0.798-3.466,2.021h-0.524c-2.096,0-3.801-1.704-3.801-3.803v-9.714h12.065
		c0.655,0,1.185-0.53,1.185-1.184c0-0.652-0.53-1.186-1.185-1.186h-12.065V20.658h9.877c0.655,0,1.185-0.531,1.185-1.184
		c0-0.653-0.53-1.183-1.185-1.183h-9.877v-6.154c0-2.872,2.337-5.21,5.21-5.21h5.16c2.874,0,5.209,2.338,5.209,5.21v3.275
		c0,0.655,0.533,1.184,1.184,1.184c0.655,0,1.184-0.529,1.184-1.184v-3.275c0-3.36-2.197-6.214-5.227-7.205V1.418
		c0-0.652-0.529-1.182-1.184-1.182h-7.491c-0.653,0-1.184,0.53-1.184,1.182v3.515c-3.032,0.99-5.229,3.845-5.229,7.205v33.491
		c0,3.4,2.769,6.17,6.168,6.17h1.298c0.525,0,0.987-0.35,1.134-0.854c0.204-0.687,0.842-1.169,1.559-1.169
		c0.714,0,1.354,0.482,1.553,1.169c0.147,0.504,0.612,0.854,1.139,0.854h1.299c1.287,0,2.522-0.396,3.57-1.149
		c0.532-0.38,0.658-1.115,0.278-1.649C137.092,48.468,136.35,48.346,135.82,48.722z M127.071,2.601h5.124V4.56h-5.124V2.601z
		 M124.856,24.433c0.652,0,1.184,0.532,1.184,1.185v3.503c0,0.653-0.532,1.183-1.184,1.183c-0.655,0-1.185-0.529-1.185-1.183v-3.503
		C123.672,24.964,124.202,24.433,124.856,24.433z M128.256,8.802c0.657,0,1.184,0.529,1.184,1.184c0,0.653-0.527,1.184-1.184,1.184
		c-1.222,0-2.216,1.114-2.216,2.48c0,0.655-0.532,1.185-1.184,1.185c-0.655,0-1.185-0.53-1.185-1.185
		C123.672,10.977,125.728,8.802,128.256,8.802z M151.254,31.118c0-0.656,0.527-1.186,1.185-1.186h0.637
		c0.655,0,1.188,0.529,1.188,1.186c0,0.651-0.533,1.18-1.188,1.18h-0.637C151.781,32.298,151.254,31.77,151.254,31.118z
		 M161.559,22.421c-0.067-4.014-11.714-4.13-13.046-4.13s-12.981,0.116-13.052,4.13c0,0.022,0,0.045,0,0.066
		c0.005,0.191,0.034,0.374,0.087,0.548l4.32,24.05c0.369,2.611,6.671,2.817,8.644,2.817c1.998,0,8.45-0.212,8.654-2.928l4.307-23.94
		c0.054-0.173,0.085-0.357,0.085-0.548C161.559,22.466,161.559,22.443,161.559,22.421z M154.842,46.536
		c-0.556,0.385-2.766,1.002-6.33,1.002c-3.577,0-5.787-0.622-6.337-1.008c-0.003-0.011-0.005-0.023-0.011-0.035l-3.811-21.226
		c3.559,1.301,9.252,1.355,10.159,1.355s6.596-0.054,10.155-1.355L154.842,46.536z M156.004,23.561
		c-2.068,0.45-4.733,0.697-7.492,0.697c-2.766,0-5.427-0.248-7.499-0.697c-1.828-0.396-2.708-0.845-3.054-1.104
		c0.346-0.259,1.226-0.707,3.054-1.104c2.072-0.449,4.733-0.696,7.499-0.696c2.759,0,5.423,0.247,7.492,0.696
		c1.831,0.397,2.715,0.844,3.058,1.104C158.719,22.716,157.835,23.165,156.004,23.561z M147.844,32.722
		c0.658,0,1.185,0.529,1.185,1.182c0,0.657-0.527,1.183-1.185,1.183h-0.638c-0.655,0-1.185-0.525-1.185-1.183
		c0-0.652,0.53-1.182,1.185-1.182H147.844z M156.559,50.939c0.4,0.515,0.307,1.26-0.209,1.66c-1.474,1.141-5.017,1.547-7.838,1.547
		c-2.823,0-6.366-0.406-7.839-1.547c-0.516-0.4-0.612-1.146-0.212-1.66c0.399-0.518,1.145-0.614,1.661-0.21
		c0.524,0.405,2.723,1.052,6.39,1.052c3.663,0,5.863-0.646,6.387-1.052C155.415,50.325,156.157,50.422,156.559,50.939z
		 M149.629,39.474c0-0.654,0.533-1.184,1.183-1.184h0.641c0.652,0,1.185,0.529,1.185,1.184c0,0.651-0.533,1.185-1.185,1.185h-0.641
		C150.162,40.658,149.629,40.125,149.629,39.474z"/>
	<g>
		<g>
			<path fill="#FFFFFF" d="M233.459,3.058c-3.629,0-6.728,2.229-8.03,5.382l2.44,0.652c0.999-2.094,3.12-3.547,5.59-3.547
				c3.426,0,6.204,2.776,6.204,6.2c0,3.428-2.778,6.205-6.204,6.205c-0.21,0-0.416-0.043-0.623-0.06l-0.645,2.414
				c0.417,0.062,0.833,0.128,1.268,0.128c4.8,0,8.686-3.895,8.686-8.692C242.146,6.947,238.259,3.058,233.459,3.058z
				 M226.312,51.379l-7.744-2.113V30.816l15.76-18.194c0.011,0,0.017-0.002,0.024-0.008l0.179-0.268
				c0.101-0.18,0.173-0.38,0.173-0.6c0-0.689-0.553-1.236-1.238-1.236h-21.199l-8.562-9.944l-0.028,0.026
				c-0.229-0.294-0.565-0.491-0.963-0.491c-0.683,0-1.239,0.552-1.239,1.235c0,0.362,0.16,0.682,0.402,0.911l7.109,8.263h-7.792
				c-0.685,0-1.241,0.547-1.241,1.236c0,0.377,0.174,0.708,0.439,0.934l15.692,18.137v18.44l-7.746,2.122
				c-0.684,0.187-1.083,0.9-0.904,1.599c0.186,0.691,0.885,1.104,1.561,0.92l8.332-2.277l8.328,2.277
				c0.679,0.185,1.38-0.229,1.563-0.92C227.4,52.279,226.996,51.565,226.312,51.379z M230.777,12.988l-8.149,9.553l-8.228-9.553
				H230.777z M203.876,12.988h7.25l9.873,11.465l-3.671,4.302L203.876,12.988z"/>
		</g>
	</g>
	<g>
		<g>
			<path fill="#FFFFFF" d="M311.995,1.466c-14.484,0-26.226,11.742-26.226,26.222c0,14.485,11.742,26.228,26.226,26.228
				c14.485,0,26.222-11.742,26.222-26.228C338.217,13.207,326.48,1.466,311.995,1.466z M334.237,27.688
				c0,1.737-0.219,3.414-0.595,5.032c-2.378-5.302-8.247-14.245-21.126-15.868c0.525-1.149,0.634-2.324,0.148-3.318
				c-0.225-0.453-0.571-0.813-0.972-1.123c3.561-2.891,8.434-3.679,11.578-3.862C329.82,12.423,334.237,19.542,334.237,27.688z
				 M306.093,6.267c-0.416,1.75-0.318,3.926-0.139,5.556c-0.57,0.167-1.138,0.364-1.703,0.643c-0.71,0.349-1.339,0.774-1.909,1.231
				c-3.21-0.755-5.726-0.567-7.675,0.083C297.552,10.189,301.531,7.526,306.093,6.267z M292.195,37.782
				c1.45-7.843,6.058-13.42,9.327-16.507c0.966,0.495,2.217,0.671,3.582,0.518c-1.239,7.351-1.638,20.771,9.673,27.945
				c-0.916,0.113-1.84,0.196-2.787,0.196C303.361,49.935,295.883,44.982,292.195,37.782z"/>
		</g>
	</g>
</g>
</svg>
