<?xml version="1.0" encoding="utf-8"?>
<!-- Generator: Adobe Illustrator 16.0.0, SVG Export Plug-In . SVG Version: 6.00 Build 0)  -->
<!DOCTYPE svg PUBLIC "-//W3C//DTD SVG 1.1//EN" "http://www.w3.org/Graphics/SVG/1.1/DTD/svg11.dtd">
<svg version="1.1" xmlns="http://www.w3.org/2000/svg" xmlns:xlink="http://www.w3.org/1999/xlink" x="0px" y="0px" width="600px"
	 height="300px" viewBox="0 0 600 300" enable-background="new 0 0 600 300" xml:space="preserve">
<g id="Layer_1" display="none">
	<rect x="-161" y="-21" fill="#27629C" width="771" height="389"/>
	
		<rect x="-106.084" y="-47.598" transform="matrix(0.9915 0.1299 -0.1299 0.9915 14.7449 -35.4074)" fill="#1D528E" width="769.668" height="285.812"/>
	
		<rect x="-264.321" y="99.569" transform="matrix(0.9682 0.2502 -0.2502 0.9682 65.4442 -30.2643)" fill="#1E3E74" width="832.143" height="285.379"/>
	
		<rect x="66.679" y="88.811" transform="matrix(-0.9891 0.147 -0.147 -0.9891 994.2874 389.5152)" fill="#1E3E74" width="832.142" height="285.378"/>
	
		<rect x="-115.399" y="-90.192" transform="matrix(0.9599 -0.2804 0.2804 0.9599 -9.5374 79.6352)" fill="#27629C" width="777.929" height="326.687"/>
</g>
<g id="Layer_2">
	<linearGradient id="SVGID_1_" gradientUnits="userSpaceOnUse" x1="0.8003" y1="-23.2432" x2="599.1993" y2="322.2427">
		<stop  offset="0.2834" style="stop-color:#EE2953"/>
		<stop  offset="1" style="stop-color:#05223E"/>
	</linearGradient>
	<rect x="-8" y="-8" fill="url(#SVGID_1_)" width="616" height="315"/>
</g>
<g id="Layer_3" display="none">
	<g id="Layer_4">
		<rect x="-9" y="-8" display="inline" fill="#F6F2F3" width="615" height="313"/>
	</g>
	
		<rect x="-63.093" y="-176.932" transform="matrix(-0.9886 0.1506 -0.1506 -0.9886 590.6698 -83.5938)" fill="#E8E5E6" width="723.185" height="315"/>
	<rect x="-5" y="-7" display="inline" fill="#50C4C9" width="610" height="314"/>
</g>
<g id="Layer_5" display="none">
	
		<rect x="-16.985" y="74.001" transform="matrix(0.9855 -0.17 0.17 0.9855 -37.3062 61.2422)" fill="#3FAFAC" width="712.097" height="349.052"/>
</g>
<g id="Layer_6" display="none">
	
		<rect x="-34.057" y="65.385" transform="matrix(0.9295 -0.3689 0.3689 0.9295 -64.4326 136.0056)" display="inline" fill="#4AB7B6" width="714.999" height="342.221"/>
</g>
</svg>
